<?xml version="1.0" standalone="no"?>
<!DOCTYPE svg PUBLIC "-//W3C//DTD SVG 20010904//EN"
 "http://www.w3.org/TR/2001/REC-SVG-20010904/DTD/svg10.dtd">
<svg version="1.0" xmlns="http://www.w3.org/2000/svg"
 width="260.000000pt" height="260.000000pt" viewBox="0 0 260.000000 260.000000"
 preserveAspectRatio="xMidYMid meet">
<metadata>
Created by potrace 1.14, written by Peter Selinger 2001-2017
</metadata>
<g transform="translate(0.000000,260.000000) scale(0.100000,-0.100000)"
fill="#000000" stroke="none">
<path d="M1115 2465 c-389 -61 -720 -298 -898 -642 -366 -710 46 -1569 833
-1739 113 -24 372 -25 478 -1 509 116 882 509 956 1010 26 175 16 337 -34 517
-29 106 -118 283 -189 377 -74 98 -206 225 -300 287 -248 165 -562 236 -846
191z m430 -651 c60 -20 136 -69 152 -97 7 -12 12 -34 13 -49 0 -16 2 -28 5
-28 3 0 41 18 85 40 89 45 150 53 150 21 0 -11 -14 -28 -34 -39 -25 -15 -38
-32 -45 -59 -19 -73 -51 -209 -76 -328 -35 -166 -93 -314 -165 -420 -14 -22
-30 -45 -34 -52 -4 -8 11 -17 51 -28 147 -41 251 -104 366 -223 62 -65 86
-112 55 -112 -6 0 -37 20 -69 45 -94 74 -320 174 -430 190 l-46 7 -36 -49
c-53 -72 -184 -194 -247 -230 -117 -66 -283 -90 -393 -58 -55 17 -82 35 -110
75 -36 52 -10 160 56 228 95 99 365 173 585 159 56 -3 86 -1 93 7 34 39 141
235 134 244 -2 2 -23 -5 -47 -16 -85 -39 -144 -54 -230 -58 -80 -5 -93 -3
-170 28 -94 37 -155 92 -189 168 -26 57 -33 192 -13 255 20 69 83 182 111 200
13 9 40 31 59 49 45 42 174 115 233 131 64 18 132 18 186 -1z"/>
<path d="M1360 1732 c-87 -36 -189 -103 -242 -159 -15 -15 -42 -59 -60 -98
-29 -62 -33 -79 -32 -150 1 -61 7 -90 22 -120 33 -62 44 -72 113 -107 58 -30
72 -32 151 -31 169 2 304 77 342 189 14 43 35 237 36 331 0 27 -4 32 -27 35
-22 2 -29 9 -33 32 -4 22 -18 37 -55 60 -63 39 -147 46 -215 18z"/>
<path d="M1245 693 c-137 -13 -323 -74 -368 -121 -34 -36 -51 -80 -37 -97 13
-15 87 -35 132 -35 42 0 159 33 212 60 56 29 210 181 193 192 -12 8 -56 8
-132 1z"/>
</g>
</svg>
