<?xml version="1.0" encoding="UTF-8"?>
<svg width="210mm" height="297mm" version="1.1" viewBox="0 0 210 297" xmlns="http://www.w3.org/2000/svg" xmlns:cc="http://creativecommons.org/ns#" xmlns:dc="http://purl.org/dc/elements/1.1/" xmlns:rdf="http://www.w3.org/1999/02/22-rdf-syntax-ns#" xmlns:xlink="http://www.w3.org/1999/xlink"><style>#minute-hand{animation: linear spin 1s infinite;transform-origin:106px 117px}#hour-hand {animation: linear spin 60s infinite;transform-origin:106px 117px}#pendulum {animation:1.5s sway infinite ease;transform-origin:113px 123px;}@keyframes sway{from{transform:rotate(-15deg)}50%{transform:rotate(15deg)}to{transform:rotate(-15deg)}}@keyframes spin{from{transform:rotate(0deg)}to{transform:rotate(360deg)}}</style><defs><linearGradient id="linearGradient1353"><stop stop-color="#7d7f00" offset="0"/><stop stop-color="#fbff2d" stop-opacity=".98039" offset="1"/></linearGradient><linearGradient id="linearGradient1392"><stop stop-color="#ffffd3" offset="0"/><stop stop-color="#ffff2f" stop-opacity=".99216" offset=".50646"/><stop stop-color="#7b7b00" stop-opacity=".98824" offset="1"/></linearGradient><linearGradient id="linearGradient1777"><stop stop-color="#140000" offset="0"/><stop stop-color="#340e07" offset="1"/></linearGradient><radialGradient id="radialGradient1781" cx="72.37" cy="202.63" r="10.092" gradientTransform="matrix(-6.329 -1.3754 2.1248 -9.7759 108.25 2235.8)" gradientUnits="userSpaceOnUse" xlink:href="#linearGradient1777"/><linearGradient id="linearGradient1789" x1="106.85" x2="103.76" y1="-188.51" y2="-156.47" gradientTransform="matrix(1.5137 0 0 -1.5136 -52.478 -117.59)" gradientUnits="userSpaceOnUse" xlink:href="#linearGradient1777"/><linearGradient id="linearGradient1805" x1="97.075" x2="97.075" y1="272.31" y2="264.9" gradientTransform="matrix(1.5137 0 0 1.5136 -52.478 -117.59)" gradientUnits="userSpaceOnUse" spreadMethod="reflect"><stop stop-color="#2d0b06" offset="0"/><stop stop-color="#36160d" offset="1"/></linearGradient><radialGradient id="radialGradient1813" cx="105.2" cy="109.16" r="34.007" gradientTransform="matrix(1.4517 0 0 .9226 -45.958 -53.075)" gradientUnits="userSpaceOnUse"><stop stop-color="#3d190f" offset="0"/><stop stop-color="#3c1108" offset="1"/></radialGradient><linearGradient id="linearGradient1359" x1="335.12" x2="397.33" y1="631.82" y2="525.05" gradientTransform="matrix(.4005 0 0 .40048 -52.478 -117.79)" gradientUnits="userSpaceOnUse"><stop stop-color="#7d7f00" offset="0"/><stop stop-color="#fbff2d" stop-opacity=".98039" offset="1"/></linearGradient><linearGradient id="linearGradient1369" x1="143.61" x2="148.09" y1="339.33" y2="223.96" gradientTransform="matrix(2.7771 -2.6 0 3.7795 -6.3638 0)" gradientUnits="userSpaceOnUse"><stop stop-color="#e6e6e6" stop-opacity=".82008" offset="0"/><stop stop-color="#e6e6e6" stop-opacity="0" offset="1"/></linearGradient><radialGradient id="radialGradient1394" cx="95.251" cy="145.54" r="26.342" gradientTransform="matrix(.29674 .74519 -.853 .33964 201.94 92.22)" gradientUnits="userSpaceOnUse" xlink:href="#linearGradient1392"/><radialGradient id="radialGradient1407" cx="391.4" cy="752.15" r="11.769" gradientTransform="matrix(.47934 0 0 4.3874 -78.596 -3098.1)" gradientUnits="userSpaceOnUse"><stop stop-color="#ffffd3" offset="0"/><stop stop-color="#ffff2f" stop-opacity=".99216" offset=".7"/><stop stop-color="#7b7b00" stop-opacity=".98824" offset="1"/></radialGradient><radialGradient id="radialGradient1439" cx="89.751" cy="179.46" r="34.502" gradientTransform="matrix(2.5162 1.1791 -1.2994 2.7726 94.738 -460.36)" gradientUnits="userSpaceOnUse"><stop stop-opacity="0" offset="0"/><stop stop-color="#050500" stop-opacity="0" offset=".71647"/><stop stop-color="#0c0c00" stop-opacity=".66938" offset="1"/></radialGradient><linearGradient id="linearGradient987" x1="105.92" x2="105.92" y1="117.87" y2="107.55" gradientUnits="userSpaceOnUse" xlink:href="#linearGradient1353"/><linearGradient id="linearGradient993" x1="106.11" x2="106.11" y1="117.78" y2="100.99" gradientUnits="userSpaceOnUse" xlink:href="#linearGradient1353"/><radialGradient id="radialGradient1001" cx="104.59" cy="116.01" r="3.2948" gradientTransform="matrix(1.2628 1.1208 -2.4903 2.8059 261.53 -326.94)" gradientUnits="userSpaceOnUse" xlink:href="#linearGradient1392"/></defs><metadata><rdf:RDF><cc:Work rdf:about=""><dc:format>image/svg+xml</dc:format><dc:type rdf:resource="http://purl.org/dc/dcmitype/StillImage"/><dc:title/></cc:Work></rdf:RDF></metadata><g><path d="m179.89 269.49c-3.6856 5.5882-10.403 8.429-20.702 11.113-6.3002 5.5842-14.177 10.781-23.928 15.554l-59.763-0.50138c-9.3242-4.7627-14.693-9.4448-20.546-14.627-11.107-2.9478-16.525-6.5458-19.67-10.687 22.906-12.204 46.376-18.941 70.46-19.365 24.084-0.42419 48.784 5.4648 74.149 18.514z" fill="url(#linearGradient1805)"/><path d="m43.446 260.08c-5.2691 3.6564-6.3226 7.4917-8.1634 10.26l144.61-0.85126c-0.42354-3.2994-1.1616-6.604-5.6748-9.9726l-14.093-15.081-80.933-1.0272z" fill="#3d190f"/><path d="m201.36 100.26-22.119 26.918-6.6841 0.55286-53.061-45.906-3.5341-0.29948-43.511 45.99-10.73 0.46067-42.007-30.895 84.417-85.927z" fill="#340e07"/><path d="m172.56 127.91 15.615-26.826 13.189-0.64496-22.119 26.918z" fill="#140000"/><path d="m16.59 99.938 10.162-0.34389 45.7 27.925-10.73 0.46067z" fill="#140000"/><path d="m83.65 131.14 0.26474 114.36-28.442 14.796-2.1104-157.9z" fill="url(#radialGradient1781)"/><path d="m161.44 103.32-0.86575 155.11-8.7859-13.119 1.3147-115.05z" fill="#340e07"/><path d="m83.429 131.14 69.891-0.88112-1.3231 115.05-68.302 0.18907z" fill="#140000"/><path d="m53.362 102.39 109.07-1.0484-9.1112 30.813-69.67 0.94127z" fill="#140000"/><path d="m83.142 149.66 67.832 0.24883 12.67-15.801h-106.26z" fill="url(#linearGradient1789)" style="paint-order:stroke markers fill"/></g><g id="pendulum"><path d="m109.92 125.09v72.361c-0.92371 1.1062-1.6779 2.7751-1.6779 4.4147-1.2578 1.1606-1.3626 4.7988-1.1835 5.2211h9.2632c0.12307-0.21549 0.3512-4.2469-1.0028-5.3275 0-1.5029-0.63931-3.1322-1.462-4.2442v-72.425zm0 106.07 0.46621 6.5868c1.2563 0.92919 2.1242 0.57405 2.9256 0l0.54522-6.5868z" fill="url(#radialGradient1407)" image-rendering="auto" style="paint-order:stroke markers fill"/><path d="m111.36 204.17c-6.0809 0-13.985 6.4615-13.985 14.143s5.7146 14.782 13.985 14.782c8.27 0 14.975-6.6179 14.975-14.782s-6.5921-14.143-14.975-14.143z" fill="url(#radialGradient1394)" image-rendering="auto" style="paint-order:stroke markers fill"/></g><g><path d="m54.593 88.462c40.205-43.968 70.471-42.835 109.05-6.7691v52.419h-109.05z" fill="#3d190f" style="paint-order:stroke markers fill"/><path id="path1669" d="m146.51 116.41c0 22.41-18.462 40.577-41.236 40.577-22.774 0-38.511-19.494-38.511-40.577 0-21.084 21.765-38.818 38.511-38.818 23.084 0 41.236 16.408 41.236 38.818z" fill="#e0dfad" style="paint-order:stroke markers fill"/><g fill="none" stroke-dashoffset="8.4661" stroke-linecap="round" stroke-linejoin="round"><path d="m104.47 90.77c-3.722 0-11.067 2.8191-16.522 7.9373-5.4552 5.1182-8.8163 11.7-8.8163 17.708 0 14.528 10.081 27.403 25.338 27.403 15.768 0 28.064-12.229 28.064-27.403 0-15.296-11.223-25.645-28.064-25.645z" stroke="#999" stroke-width=".61192" style="paint-order:stroke markers fill"/><path transform="translate(-5.0497e-6 .34609)" d="m105.27 79.277c-7.7793 0-17.115 4.2267-24.385 11.047-7.2693 6.8201-12.445 16.127-12.445 26.09 0 20.247 15.016 38.896 36.83 38.896 21.88 0 39.555-17.41 39.555-38.896 0-21.502-17.268-37.137-39.555-37.137z" stroke="#999" stroke-width=".44329" style="paint-order:stroke markers fill" xlink:href="#path1669"/><ellipse cx="106.14" cy="116.71" rx="3.2083" ry="3.1152" display="none" stroke="#000" stroke-width=".671" style="paint-order:stroke markers fill"/></g><g display="none" fill="#eaea00" font-family="'Abhaya Libre'" font-size="7.634px" letter-spacing="-.6006px" stroke-width=".26458" word-spacing="0px"><text transform="scale(1.0012 .9988)" x="100.20021" y="136.60541" style="line-height:1.25" xml:space="preserve"><tspan x="100.20021" y="136.60541" fill="#eaea00" stroke-width=".26458">XII</tspan></text><text transform="matrix(.80526 -.59352 .59495 .80332 0 0)" x="-11.599651" y="168.46826" style="line-height:1.25" xml:space="preserve"><tspan x="-11.599651" y="168.46826" fill="#eaea00" stroke-width=".26458">XI</tspan></text><text transform="matrix(.46697 -.88351 .88564 .46584 0 0)" x="-90.861908" y="146.29552" style="line-height:1.25" xml:space="preserve"><tspan x="-90.861908" y="146.29552" fill="#eaea00" stroke-width=".26458">X</tspan></text><text transform="matrix(-.01113 -.99874 1.0011 -.011103 0 0)" x="-160.28207" y="83.784439" style="line-height:1.25" xml:space="preserve"><tspan x="-160.28207" y="83.784439" fill="#eaea00" stroke-width=".26458">IX</tspan></text><text transform="matrix(-.469 -.88244 .88456 -.46787 0 0)" x="-191.95627" y="0.6961987" style="line-height:1.25" xml:space="preserve"><tspan x="-191.95627" y="0.6961987" fill="#eaea00" stroke-width=".26458">VIII</tspan></text><text transform="matrix(-.85167 -.5251 .52637 -.84963 0 0)" x="-175.20447" y="-96.122643" style="line-height:1.25" xml:space="preserve"><tspan x="-175.20447" y="-96.122643" fill="#eaea00" stroke-width=".26458">VII</tspan></text><text transform="matrix(-1.0009 -.025779 .025841 -.99846 0 0)" x="-111.83583" y="-171.48676" style="line-height:1.25" xml:space="preserve"><tspan x="-111.83583" y="-171.48676" fill="#eaea00" stroke-width=".26458">VI</tspan></text><text transform="matrix(-.90913 .41838 -.41938 -.90695 0 0)" x="-32.121723" y="-203.66103" style="line-height:1.25" xml:space="preserve"><tspan x="-32.121723" y="-203.66103" fill="#eaea00" stroke-width=".26458">V</tspan></text><text transform="matrix(-.57463 .81791 -.81988 -.57325 0 0)" x="62.2612" y="-193.96121" style="line-height:1.25" xml:space="preserve"><tspan x="62.2612" y="-193.96121" fill="#eaea00" stroke-width=".26458">IIII</tspan></text><text transform="matrix(0 .9988 -1.0012 0 0 0)" x="152.23888" y="-123.79041" style="line-height:1.25" xml:space="preserve"><tspan x="152.23888" y="-123.79041" fill="#eaea00" stroke-width=".26458">III</tspan></text><text transform="matrix(.49844 .86622 -.86831 .49724 0 0)" x="184.50191" y="-32.242378" style="line-height:1.25" xml:space="preserve"><tspan x="184.50191" y="-32.242378" fill="#eaea00" stroke-width=".26458">II</tspan></text><text transform="matrix(.84833 .53045 -.53173 .8463 0 0)" x="169.93947" y="57.339191" style="line-height:1.25" xml:space="preserve"><tspan x="169.93947" y="57.339191" fill="#eaea00" stroke-width=".26458">I</tspan></text></g><path d="m99.608 82.479c-0.22466 0.12631-0.10232 0.29856-0.12 0.4083a0.11863 0.11823 0 0 0 0.12 0.11954h0.62917l2.063 3.0593-1.8611 2.5344c-0.1339 0.17633-0.31868 0.25956-0.59696 0.25956-0.09636 0-0.18407 0.01781-0.25751 0.06419-0.07346 0.04638-0.12436 0.12741-0.14039 0.2129-0.0091 0.04376-0.01499 0.08917-0.01499 0.13417a0.11863 0.11823 0 0 0 0.12001 0.11954h2.0689a0.11863 0.11823 0 0 0 0.11995-0.11954v-0.29165a0.11863 0.11823 0 0 0-0.11995-0.11954h-0.6584l1.6738-2.2952 1.5568 2.2952h-0.5911a0.11863 0.11823 0 0 0-0.11996 0.11954v0.29165a0.11863 0.11823 0 0 0 0.11996 0.11954h7.6258a0.11863 0.11823 0 0 0 0.11995-0.11954c0-0.09649-0.0199-0.18369-0.0672-0.25664-0.0471-0.07219-0.12576-0.12355-0.21071-0.13992h-3e-3c-0.0426-0.0083-0.0864-0.0149-0.1317-0.0149h-0.47114v-5.8532h0.76377a0.11863 0.11823 0 0 0 0.11995-0.11954v-0.28872a0.11863 0.11823 0 0 0-0.11995-0.11954h-7.2923a0.11863 0.11823 0 0 0-0.11995 0.11954v0.28872a0.11863 0.11823 0 0 0 0.11995 0.11954h0.66134l-1.5187 2.1056-1.431-2.1056h0.57942a0.11863 0.11823 0 0 0 0.11995-0.11954v-0.28872a0.11863 0.11823 0 0 0-0.11995-0.11954zm6.0779 0.50744a0.11863 0.11823 0 0 0 0.0644 0.02043h0.77548v5.8532h-0.90422l-2.2269-3.2693 1.6884-2.3214c0.1259-0.17123 0.24803-0.2484 0.38334-0.2625h0.12286c0.0373 0 0.064-0.0138 0.0965-0.02043zm2.0426 0.02043h1.5304v5.8532h-0.77547a0.11863 0.11823 0 0 0-0.0936 0.04956c-0.0207-0.0083-0.0336-0.03078-0.0556-0.03493h-3e-3c-0.0427-0.0083-0.0864-0.0149-0.13169-0.0149h-0.47114zm-19.12 4.0567a0.11863 0.11823 0 0 0-0.07609 0.02332l-2.2035 1.6186-1.4602 1.0732a0.11863 0.11823 0 0 0-0.02634 0.16624l0.17265 0.2333a0.11863 0.11823 0 0 0 0.16679 0.02623l0.53258-0.39079 0.0381 2.5956-2.4142-0.84867 0.4682-0.34705a0.11863 0.11823 0 0 0 0.02341-0.16627l-0.17265-0.2304a0.11863 0.11823 0 0 0-0.16387-0.02623l-2.1069 1.5457a0.11863 0.11823 0 0 0-0.02634 0.16624l0.17265 0.23332a0.11863 0.11823 0 0 0 0.1668 0.02623l0.50917-0.37622 3.491 1.2424 0.01175 3.138c-2e-3 0.2233-0.09504 0.39837-0.31897 0.56286-0.07751 0.05687-0.13822 0.12327-0.16972 0.20415-0.03151 0.08075-0.02351 0.17534 0.01469 0.25372 0.01976 0.04128 0.04215 0.07992 0.06728 0.11374a0.11863 0.11823 0 0 0 0.1668 0.02623l1.6621-1.222a0.11863 0.11823 0 0 0 0.02634-0.16623l-0.17265-0.23332a0.11863 0.11823 0 0 0-0.1668-0.02623l-0.53258 0.39079-0.0234-2.8377 2.6249 0.92742-0.47699 0.34996a0.11863 0.11823 0 0 0-0.02634 0.16623l0.17265 0.23332a0.11863 0.11823 0 0 0 0.1668 0.02623l1.7324-1.2715 2.2035-1.6186a0.11863 0.11823 0 0 0 0.02634-0.16623c-0.05735-0.07717-0.12352-0.13872-0.20484-0.16916-0.08136-0.03051-0.17662-0.02015-0.25459 0.01753-0.03769 0.01767-0.0769 0.03686-0.11412 0.06419l-0.38042 0.27997-3.5027-4.7071 0.61452-0.45204a0.11863 0.11823 0 0 0 0.02634-0.16624l-0.17265-0.2333a0.11863 0.11823 0 0 0-0.09068-0.04956zm34.779 0c-0.18638 0.08544-0.20112 0.25731-0.24873 0.30039a0.11863 0.11823 0 0 0 0.0381 0.16333l0.65549 0.4083-3.1282 4.9637-0.6584-0.4083a0.11863 0.11823 0 0 0-0.16094 0.03493l-0.1551 0.24498a0.11863 0.11823 0 0 0 0.0381 0.16332l2.3205 1.4465a0.11863 0.11823 0 0 0 0.16093-0.03493c0.0511-0.08103 0.0856-0.16431 0.0848-0.25079-7.3e-4 -0.08531-0.0431-0.169-0.10532-0.22749l-3e-3 -0.0027c-0.03-0.02803-0.0627-0.05673-0.10243-0.08172a0.11863 0.11823 0 0 0-3e-3 0l-0.40088-0.24789 3.1311-4.9637 0.64378 0.40246a0.11863 0.11823 0 0 0 0.16386-0.03493l0.15511-0.24497a0.11863 0.11823 0 0 0-0.0381-0.16333l-2.3206-1.4465a0.11863 0.11823 0 0 0-0.0672-0.02043zm-36.122 1.6099 3.5027 4.7071-0.6233 0.45787-0.10828 0.08172-3.7427-1.3211-0.03222-2.861c-1e-3 -0.21601 0.05552-0.35146 0.16095-0.4433l0.09068-0.06709c0.03131-0.02292 0.04428-0.05052 0.06728-0.07592a0.11863 0.11823 0 0 0 0.0614-0.02043zm47.622 8.513c-0.10602 0.03437-0.39282 0.20789-0.29262 0.1604a0.11863 0.11823 0 0 0-0.0439 0.1604l0.38626 0.66786-5.1093 2.9164-0.38629-0.66784a0.11863 0.11823 0 0 0-0.16093-0.0438l-0.25166 0.14288a0.11863 0.11823 0 0 0-0.0439 0.1604l1.3607 2.3565 1.3636 2.3623a0.11863 0.11823 0 0 0 0.16096 0.0438c0.0834-0.0476 0.15024-0.10409 0.19019-0.18083 0.04-0.0767 0.0432-0.16954 0.015-0.2508-0.015-0.045-0.0338-0.0848-0.0556-0.12244l-0.2341-0.40828 5.1093-2.9164 0.38042 0.65911a0.11863 0.11823 0 0 0 0.16095 0.0438l0.25166-0.14289a0.11863 0.11823 0 0 0 0.0439-0.16041l-1.3607-2.3564-1.3636-2.3652a0.11863 0.11823 0 0 0-0.11996-0.05839zm-58.148 1.0878a0.11863 0.11823 0 0 0-0.09068 0.06129l-0.91007 1.7119a0.11863 0.11823 0 0 0 0.04975 0.16041l0.26043 0.13403a0.11863 0.11823 0 0 0 0.16095-0.0495l0.30726-0.58329 1.1705 2.3243-2.5488 0.27707 0.27214-0.51037a0.11863 0.11823 0 0 0-0.04975-0.16035l-0.25751-0.13707a0.11863 0.11823 0 0 0-0.16095 0.0495l-1.2203 2.301a0.11863 0.11823 0 0 0 0.04975 0.1604l0.25751 0.13708a0.11863 0.11823 0 0 0 0.16095-0.0495l0.29262-0.55704 3.6842-0.38787 1.3841 2.8172c0.09565 0.20094 0.08602 0.40529-0.04387 0.65036-0.04519 0.0852-0.0693 0.17029-0.0615 0.25664 0.0081 0.085 0.0536 0.16507 0.11998 0.21873 6.38e-4 5.2e-4 2e-3 -5.1e-4 3e-3 0 6.78e-4 5.5e-4 -6.89e-4 3e-3 0 3e-3 0.03495 0.0279 0.07275 0.0529 0.1112 0.0729a0.11863 0.11823 0 0 0 0.16095-0.0495l0.96568-1.8198a0.11863 0.11823 0 0 0-0.04975-0.16042l-0.25748-0.13414a0.11863 0.11823 0 0 0-0.16095 0.0495l-0.31018 0.58327-1.2641-2.5489 2.7741-0.29747-0.278 0.52203a0.11863 0.11823 0 0 0 0.04975 0.16039l0.25752 0.13432a0.11863 0.11823 0 0 0 0.16089-0.0496l1.2173-2.2894a0.11863 0.11823 0 0 0-0.04975-0.16038c-0.08491-0.0444-0.17103-0.0708-0.25752-0.0642-0.08511 5e-3 -0.16522 0.0533-0.21946 0.11954-0.02675 0.0327-0.05603 0.0707-0.07903 0.11375l-0.13755 0.25957-3.9446 0.42871-1.2846-2.5664c-0.09423-0.19171-0.10183-0.33738-0.04975-0.46371 7.19e-4 -0.0014-7.5e-4 -0.0042 0-0.0055l0.05563-0.09911c0.04468-0.08434 0.07113-0.16773 0.06434-0.25373-0.0071-0.08462-0.0537-0.16515-0.11999-0.21873l-3e-3 -0.0027c-0.03151-0.0254-0.06799-0.05328-0.1112-0.07579a0.11863 0.11823 0 0 0-0.07021-0.01242zm58.795 0.93616 0.37748 0.65328 0.38629 0.66784-5.1093 2.9193-0.38626-0.67078a0.11863 0.11823 0 0 0-0.0877-0.0584c-3e-3 -0.022 7e-3 -0.0432 0-0.0642-0.0151-0.045-0.0338-0.0847-0.0556-0.12244l-0.23705-0.40828zm-0.70816 13.701a0.11863 0.11823 0 0 0-0.11996 0.11955v8.1601a0.11863 0.11823 0 0 0 0.11996 0.11955c0.0971 0 0.1844-0.0198 0.25751-0.0671 0.0723-0.0469 0.12397-0.12561 0.14039-0.20998v-3e-3c0.0101-0.048 0.0125-0.0922 0.0125-0.13128v-0.46956h5.8877v0.7612a0.11863 0.11823 0 0 0 0.11996 0.11953h0.29263a0.11863 0.11823 0 0 0 0.11995-0.11953v-8.1601a0.11863 0.11823 0 0 0-0.11995-0.11954h-0.29263a0.11863 0.11823 0 0 0-0.11996 0.11954v0.76992h-5.8877v-0.76992a0.11863 0.11823 0 0 0-0.11995-0.11954zm-57.452 0.70285c-0.47758 0.27874-0.15614-0.31529-0.39504 0.27997-0.02259 0.26507-0.01135 0.39727-0.0091 0.4258l-3.2657 2.2456-2.3527-1.6478h-3e-3c-0.1708-0.12188-0.25-0.2463-0.26629-0.37912v-0.12253c-1e-3 -0.0957-0.01996-0.18407-0.06728-0.25664-0.04681-0.0718-0.12568-0.12147-0.2107-0.13708h-3e-3c-0.04934-8e-3 -0.09544-0.0125-0.1346-0.0125a0.11863 0.11823 0 0 0-0.11998 0.11955l0.0234 1.9336a0.11863 0.11823 0 0 0 0.11998 0.11954l0.28971-3e-3a0.11863 0.11823 0 0 0 0.11989-0.11958l-0.0061-0.66203 2.1391 1.4903-2.1069 1.4494-0.0061-0.57745a0.11863 0.11823 0 0 0-0.11998-0.11954l-0.29264 3e-3a0.11863 0.11823 0 0 0-0.11998 0.11954l0.02634 2.3185 0.02928 2.7239a0.11863 0.11823 0 0 0 0.11998 0.11955l0.29262-3e-3a0.11863 0.11823 0 0 0 0.11999-0.12245l-0.0091-0.76701 5.8876-0.0671 0.0091 0.76993a0.11863 0.11823 0 0 0 0.11998 0.11665l0.28971-3e-3a0.11863 0.11823 0 0 0 0.11998-0.11968l-0.02928-2.7239-0.02047-1.7148a0.11863 0.11823 0 0 0-0.11998-0.11955l-0.28971 3e-3a0.11863 0.11823 0 0 0-0.11998 0.11954l0.0061 0.65909-2.3322-1.6419 2.2971-1.5748 0.0061 0.5891a0.11863 0.11823 0 0 0 0.11998 0.11955l0.29264-3e-3a0.11863 0.11823 0 0 0 0.11998-0.11954l-0.02928-2.5898a0.11863 0.11823 0 0 0-0.11998-0.11954zm57.861 1.3794h5.8906v1.5253h-5.8906v-0.77282a0.11863 0.11823 0 0 0-0.0468-0.0933c0.0101-0.0201 0.0309-0.0312 0.0351-0.0526v-3e-3c0.0101-0.048 0.0125-0.0922 0.0125-0.13128zm-61.042 2.6539 2.5693 1.8257c0.18084 0.13169 0.26905 0.31248 0.27214 0.58911 3.25e-4 0.0366 0.0091 0.0709 0.01469 0.10492 1.72e-4 9.3e-4 -1.62e-4 1e-3 0 3e-3 -0.0081 0.0456-0.01226 0.0896-0.01175 0.13128l0.0061 0.47244-5.8906 0.0642-0.0061-0.47537-0.0061-0.62703zm61.042 0.0642h5.8906v1.5224h-5.8906v-0.76701a0.11863 0.11823 0 0 0-0.0468-0.0933c0.0101-0.0206 0.0309-0.0334 0.0351-0.0553v-3e-3c0.0101-0.0492 0.0125-0.0952 0.0125-0.13404zm-56.966 7.673c-0.30645 0.29124-0.35491 0.0534-0.26336 0.44038 0.01408 0.0473 0.03344 0.0864 0.05269 0.12245l0.2224 0.41702-5.2058 2.7414-0.357-0.66785a0.11863 0.11823 0 0 0-0.16094-0.0495l-0.25752 0.13403a0.11863 0.11823 0 0 0-0.04975 0.16041l1.2846 2.406 1.2817 2.4002 1.2788 2.4031 0.6672 1.2511a0.11863 0.11823 0 0 0 0.16095 0.0495l0.25751-0.13707a0.11863 0.11823 0 0 0 0.04975-0.1604l-0.33944-0.63578 5.0478-0.74659-3.3857 3.8613-0.33653-0.62993a0.11863 0.11823 0 0 0-0.16094-0.0496l-0.25753 0.13418a0.11863 0.11823 0 0 0-0.04975 0.16039l1.1822 2.2194a0.11863 0.11823 0 0 0 0.16095 0.0495l0.25751-0.13403a0.11863 0.11823 0 0 0 0.04975-0.16039l-0.27506-0.51622 3.9358-4.4358c0.15827-0.17712 0.27847-0.32887 0.36286-0.45787 0.0844-0.12906 0.14058-0.23204 0.14338-0.34413l-3e-3 3e-3c0.0061-0.11361-0.02442-0.23114-0.08774-0.34996a0.11863 0.11823 0 0 0 0-3e-3l-0.06434-0.11665a0.11863 0.11823 0 0 0-0.12289-0.0584l-6.7158 0.97991-0.0091-0.0205-0.36286-0.67952 5.2029-2.7443 0.36286 0.68245a0.11863 0.11823 0 0 0 0.16094 0.0495l0.25752-0.13706a0.11863 0.11823 0 0 0 0.04975-0.16042l-1.2817-2.4002-1.2788-2.4002a0.11863 0.11823 0 0 0-0.0061-8e-3l-3e-3 -5e-3 -1.2759-2.3944a0.11863 0.11823 0 0 0-0.11998-0.0611zm0.57356 2.0357 0.36285 0.6795a0.11863 0.11823 0 0 0 0.08491 0.0611c2e-3 0.022-0.0091 0.043-3e-3 0.0641 0.01196 0.0402 0.02675 0.0822 0.04975 0.12548l0.2224 0.41415-5.2029 2.7443-0.35408-0.66494-0.36579-0.68243zm54.689 0.42577a0.11863 0.11823 0 0 0-0.0967 0.0526l-1.5714 2.231-1.5685 2.2252-3.137 4.4504a0.11863 0.11823 0 0 0 0.0293 0.16331c0.0787 0.0548 0.1591 0.0923 0.2458 0.0964 0.0867 4e-3 0.17193-0.0326 0.2341-0.0933 0.0332-0.0315 0.062-0.0657 0.0878-0.10215l0.27214-0.3879 4.8254 3.3626-0.43894 0.62411a0.11863 0.11823 0 0 0 0.0293 0.16332l0.23701 0.16622a0.11863 0.11823 0 0 0 0.16388-0.0291l1.5685-2.2252 1.5334-2.1727h-0.0586a0.11863 0.11823 0 0 0 0.0967-0.0526l1.5685-2.2252 1.5714-2.231a0.11863 0.11823 0 0 0-0.0293-0.16331l-0.23703-0.16623a0.11863 0.11823 0 0 0-0.16388 0.0292l-0.44771 0.63285-4.8254-3.3626 0.44771-0.63285a0.11863 0.11823 0 0 0-0.0293-0.16333l-0.23997-0.16623a0.11863 0.11823 0 0 0-0.0672-0.0233zm-0.79595 1.9598 4.8225 3.3626-0.39796 0.56579h0.0586a0.11863 0.11823 0 0 0-0.0965 0.0526l-0.44481 0.63286-4.8254-3.3626 0.44772-0.63286a0.11863 0.11823 0 0 0 0.015-0.10215c0.0186-0.0125 0.0426-0.011 0.0586-0.0262 0.0332-0.0315 0.062-0.0658 0.0877-0.10215zm-52.614 0.0149 0.36579 0.67952a0.11863 0.11823 0 0 0 0.08491 0.0613c2e-3 0.0228-0.01013 0.0453-3e-3 0.0671 0.01246 0.042 0.02807 0.0819 0.04975 0.12245l0.2224 0.41705-5.2029 2.7414-0.357-0.66493-3e-3 -3e-3a0.11863 0.11823 0 0 0 0-3e-3l-0.35993-0.67661zm51.043 2.2106 4.8254 3.3655-0.43894 0.6212-0.44186 0.62702-4.8254-3.3626 0.44481-0.63286a0.11863 0.11823 0 0 0 0.0175-0.10215c0.0186-0.0125 0.0427-0.011 0.0586-0.0262 0.0332-0.0315 0.062-0.0658 0.0877-0.10215zm-1.5685 2.2252 4.8254 3.3655-0.43894 0.62119-0.44187 0.62702-4.8254-3.3626 0.4448-0.63286a0.11863 0.11823 0 0 0 0.0175-0.10215c0.0183-0.0125 0.0427-0.011 0.0586-0.0262 0.0332-0.0315 0.062-0.0658 0.0879-0.10215zm-42.469 4.4883c-0.20714 0.18268-0.33228 0.43165-0.06728 0.53371 0.03242 0.0298 0.06778 0.0555 0.10534 0.0787a0.11863 0.11823 0 0 0 0 3e-3l0.40382 0.24788-3.096 4.9812-0.65256-0.39956a0.11863 0.11823 0 0 0-0.16388 0.038l-0.15216 0.24789a0.11863 0.11823 0 0 0 0.04093 0.16332l2.3293 1.432 3.5379 2.1698a0.11863 0.11823 0 0 0 0.16095-0.038l0.15216-0.24498a0.11863 0.11823 0 0 0-0.0381-0.16039l-0.61745-0.38205 3.9797-3.1818-0.95689 5.0366-0.61744-0.37914a0.11863 0.11823 0 0 0-0.16388 0.0407l-0.15216 0.2479a0.11863 0.11823 0 0 0 0.04093 0.16332l2.1508 1.3211a0.11863 0.11823 0 0 0 0.16388-0.0407l0.15216-0.24789a0.11863 0.11823 0 0 0-0.04093-0.16332l-0.50039-0.30622 1.1471-5.8036c0.04661-0.23255 0.07224-0.42331 0.07903-0.57744 0.0071-0.15415-1e-3 -0.2726-0.05563-0.3704-0.05218-0.0986-0.13782-0.18381-0.25166-0.25372l-0.11412-0.07a0.11863 0.11823 0 0 0-0.1346 8e-3l-5.2995 4.2229-0.02047-0.0149-0.38041-0.23356a0.11863 0.11823 0 0 0-0.0091-3e-3l-0.27215-0.16622 3.0989-4.9841 0.66134 0.40538a0.11863 0.11823 0 0 0 0.16388-0.038l0.15216-0.24791a0.11863 0.11823 0 0 0-0.04093-0.1604l-2.3293-1.4349a0.11863 0.11823 0 0 0-0.01175-3e-3l-2.3147-1.4232a0.11863 0.11823 0 0 0-0.06728-0.0149zm1.4602 1.4903 0.66134 0.40537a0.11863 0.11823 0 0 0 0.10242 8e-3c2.64e-4 3.7e-4 3e-3 -3.8e-4 3e-3 0 0.01327 0.0182 0.01246 0.0432 0.02928 0.0584 0.03536 0.0326 0.07346 0.0571 0.10828 0.0787a0.11863 0.11823 0 0 0 0 3e-3l0.4009 0.2479-3.096 4.9783-0.64671-0.39663-0.65841-0.40538zm29.406 2.2544c5.4677-2.5899-17.176 7.6566-0.47113 0.12548a0.11863 0.11823 0 0 0-0.0672 0.11954l0.61159 6.7194-0.43017 0.19832a0.11863 0.11823 0 0 0-0.0586 0.15748l0.11995 0.26248a0.11863 0.11823 0 0 0 0.15803 0.0584l1.706-0.7816a0.11863 0.11823 0 0 0 0.0586-0.15749l-0.11996-0.26248a0.11863 0.11823 0 0 0-0.15803-0.0584l-0.66134 0.3033-0.47113-5.0599 3.6959 3.5813-0.65547 0.29748a0.11863 0.11823 0 0 0-0.0586 0.15749l0.12287 0.26248a0.11863 0.11823 0 0 0 0.15799 0.0584l2.2942-1.0528a0.11863 0.11823 0 0 0 0.0586-0.15749l-0.12285-0.25954a0.11863 0.11823 0 0 0-0.158-0.0584l-0.53259 0.24499-4.2372-4.1559h-3e-3c-0.16841-0.16608-0.31397-0.29449-0.43894-0.38494-0.12451-0.0902-0.22552-0.14798-0.33652-0.1575zm-16.528 2.6772c-0.24225 0.0986-0.0884 0.65577 0.13749 0.51621 1e-3 0 0.0927 0.0138 0.13749 0.0205l0.47405 0.0125-0.14921 5.8532-0.76669-0.0205a0.11863 0.11823 0 0 0-0.12287 0.11665l-5e-3 0.28871a0.11863 0.11823 0 0 0 0.11706 0.12244l2.2854 0.0584 1.8757 0.0465a0.11863 0.11823 0 0 0 0.12286-0.11665l0.0101-0.28873a0.11863 0.11823 0 0 0-0.11705-0.12244l-0.72572-0.0175 1.8289-4.742 1.7207 4.8325-0.72281-0.0175a0.11863 0.11823 0 0 0-0.12285 0.11664l-5e-3 0.28871a0.11863 0.11823 0 0 0 0.11705 0.12245l2.5254 0.0642a0.11863 0.11823 0 0 0 0.12286-0.11665l0.0101-0.28872a0.11863 0.11823 0 0 0-0.11706-0.12244l-0.58818-0.0149-1.9547-5.5878c-0.0774-0.22409-0.15071-0.40312-0.22241-0.53953-0.0708-0.13486-0.13362-0.23117-0.22824-0.28873-0.098-0.0621-0.21792-0.09-0.35116-0.0933l3e-3 3e-3 -0.13459-5e-3a0.11863 0.11823 0 0 0-0.11706 0.0728l-2.4405 6.3023-0.0206-3e-3 -0.77253-0.0175 0.15217-5.8561 0.77254 0.0205a0.11863 0.11823 0 0 0 0.12286-0.11665l0.0101-0.28872a0.11863 0.11823 0 0 0-0.11706-0.12245z" fill="#323200" stroke-width=".26458"/><path d="m99.549 81.966v0.29332h0.70089l2.1691 3.2234-1.9321 2.6375c-0.15818 0.21039-0.39127 0.31523-0.70011 0.31523-0.16571 0-0.25979 0.06033-0.28238 0.18068-0.0081 0.03755-0.01216 0.0751-0.01216 0.11264h2.0901v-0.29332h-0.90349l1.9321-2.6594 1.796 2.6594h-0.82448v0.29332h7.7042c0-0.1653-0.061-0.25905-0.18148-0.28159-0.0377-0.0069-0.075-0.01242-0.11265-0.01242h-0.59918v-6.1762h0.89331v-0.29332h-7.3655v0.29332h0.90427l-1.7741 2.4686-1.6724-2.4686h0.81351v-0.29332zm6.2078 0.26124v0.03203h0.90426v6.1762h-1.1014l-2.3272-3.4377 1.7514-2.4232c0.14306-0.19537 0.30499-0.3002 0.48576-0.31523h0.12439c0.0671 0 0.11912-0.01242 0.1627-0.03203zm1.8758 0.03203h1.7898v6.1762h-0.90347v0.23387c-0.0138-0.12672-0.0701-0.20262-0.17445-0.22215-0.0377-0.0069-0.0757-0.01242-0.11333-0.01242h-0.59839zm15.947 4.3537-0.15644 0.24795 0.76581 0.47948-3.2877 5.2329-0.7658-0.4787-0.15644 0.24796 2.3459 1.4666c0.0879-0.14001 0.0871-0.25105-3e-3 -0.334-0.0279-0.02636-0.0581-0.0497-0.0899-0.06958l-0.50765-0.31756 3.2885-5.2329 0.75643 0.47244 0.15565-0.24796zm-35.148 8.01e-4 -2.2262 1.641-1.4761 1.088 0.17444 0.23544 0.72669-0.5358 0.04377 3.0365-2.8153-0.99338 0.65394-0.4826-0.17444-0.23546-2.1261 1.5667 0.17443 0.23622 0.56321-0.41534 3.6656 1.3063 0.01641 3.2664c-2e-3 0.26295-0.12631 0.48647-0.37468 0.66955-0.13328 0.09828-0.17391 0.20201-0.12047 0.3121 0.01631 0.03465 0.03627 0.0675 0.05867 0.09773l1.681-1.239-0.17443-0.23623-0.72748 0.5358-0.0305-3.2844 3.0296 1.0747-0.66334 0.48887 0.17443 0.23543 1.7483-1.2891 2.227-1.641c-0.09848-0.13293-0.20332-0.17221-0.31368-0.11885-0.03475 0.01615-0.06748 0.03561-0.09777 0.05784l-0.48107 0.35512-3.6796-4.9677 0.71809-0.52955zm-1.3251 1.3407 3.6796 4.9677-0.72747 0.5358-0.15801 0.11651-3.9198-1.3853-0.03526-2.9864c-1e-3 -0.24194 0.06616-0.42282 0.20259-0.54206l0.1001-0.07358c0.054-0.03976 0.08855-0.08117 0.11186-0.12272l0.01955 0.02567zm48.105 8.9186-0.25502 0.14621 0.45059 0.78139-5.37 3.0748-0.44979-0.7814-0.255 0.14546 1.3752 2.3896 1.3783 2.3943c0.14366-0.0823 0.19528-0.18096 0.15488-0.29645-0.0125-0.0363-0.0282-0.0707-0.0469-0.10325l-0.29802-0.51781 5.37-3.0748 0.4443 0.77203 0.25424-0.1462-1.3744-2.3889zm-58.753 1.1029-0.91678 1.7349 0.26049 0.13611 0.42084-0.79706 1.3619 2.7165-2.9686 0.32382 0.37938-0.71725-0.2597-0.13681-1.2336 2.3325 0.2597 0.13681 0.32697-0.61795 3.8705-0.41064 1.437 2.9348c0.11279 0.23769 0.09707 0.49247-0.04691 0.76498-0.07731 0.14623-0.06789 0.2572 0.02817 0.33322 0.02979 0.0241 0.0613 0.0452 0.09463 0.0625l0.97544-1.8444-0.2597-0.1361-0.42162 0.79704-1.4581-2.945 3.197-0.34493-0.38486 0.72821 0.2597 0.1361 1.2281-2.3223c-0.14659-0.077-0.25782-0.0685-0.33402 0.0273-0.02422 0.0297-0.0458 0.0614-0.06333 0.0946l-0.16817 0.31913-4.1341 0.45055-1.3322-2.6759c-0.10648-0.2174-0.12418-0.40918-0.05319-0.5757l0.05866-0.1096c0.07731-0.14621 0.06789-0.2572-0.02817-0.3332-0.02979-0.02415-0.06211-0.04514-0.09544-0.06254zm59.432 0.66564 0.44119 0.76654 0.44977 0.7822-5.3693 3.0748-0.44976-0.78222-0.20025 0.11499c0.10081-0.0747 0.13789-0.16059 0.10325-0.25969-0.0125-0.0363-0.0274-0.0715-0.0461-0.10395l-0.29881-0.5178zm-0.75955 14.173v8.2717c0.16572 0 0.26057-0.0606 0.28317-0.1807 7e-3 -0.0376 0.011-0.0751 0.011-0.11265v-0.59758h6.1914v0.89093h0.29412v-8.2717h-0.29412v0.90187h-6.1914v-0.90187zm-58.044 0.71335c-0.1657 1e-3 -0.25956 0.0625-0.28083 0.18303-0.0071 0.0377-0.01064 0.0758-0.01013 0.11333l0.0041 0.36059-3.4199 2.3599-2.4484-1.72c-0.19742-0.1406-0.30443-0.30088-0.3215-0.48104l-2e-3 -0.12437c-2e-3 -0.1653-0.06302-0.25805-0.18383-0.27926-0.03769-7e-3 -0.07579-0.011-0.11343-0.011l0.02189 1.961 0.29412-3e-3 -0.01013-0.90188 2.4938 1.742-2.4554 1.695-0.0091-0.81112-0.29412 3e-3 0.02665 2.3489h-8.01e-4l0.03131 2.7611 0.29333-3e-3 -0.01013-0.90107 6.1914-0.0689 0.01013 0.90107 0.29333-3e-3 -0.0305-2.7612-0.01955-1.7404-0.29333 3e-3 0.01013 0.90184-2.6878-1.8976 2.6463-1.8217 0.0091 0.82287 0.29411-3e-3zm58.338 1.1577h6.1914v1.7857h-6.1914v-0.90186h-0.22762c0.12271-0.0153 0.19745-0.0713 0.21666-0.17365 7e-3 -0.0376 0.011-0.0751 0.011-0.11264zm-61.55 2.6649 2.6651 1.8976c0.21265 0.15544 0.32042 0.38733 0.32385 0.69538 4.06e-4 0.046 0.0071 0.0849 0.01641 0.11968-8e-4 3e-3 -2e-3 5e-3 -3e-3 0.0101-0.0071 0.0377-0.01064 0.0751-0.01013 0.11264l0.0061 0.59759-6.1906 0.0681-0.0071-0.6015-0.0081-0.69928zm61.55 0.0899h6.1914v1.7858h-6.1914v-0.90109h-0.23467c0.127-0.0138 0.20414-0.0703 0.22371-0.17441 7e-3 -0.0376 0.011-0.0751 0.011-0.11264zm-57.418 8.0175c-0.14641 0.0774-0.20155 0.17496-0.16505 0.29174 0.01094 0.0369 0.02543 0.0716 0.04306 0.10477l0.28082 0.52719-5.4709 2.8933-0.41771-0.78612-0.2597 0.1368 1.2969 2.4397 1.2938 2.4342 1.2938 2.4342 0.67429 1.2687 0.2597-0.13762-0.42397-0.79626 5.5953-0.82912-3.7532 4.2942-0.42319-0.79626-0.2597 0.13679 1.196 2.2504 0.2597-0.1368-0.31759-0.59759 4.0348-4.5578c0.31501-0.3537 0.4745-0.59971 0.47794-0.73759 0.0051-0.0875-0.02097-0.18477-0.07741-0.29097l-0.06332-0.11899-6.8704 1.0051-0.05005-0.0938-0.4232-0.79629 5.4702-2.8933 0.4232 0.79628 0.2597-0.1368-2.5876-4.8684-3e-3 -5e-3zm0.61327 1.7802 0.42397 0.79706 0.20573-0.10961c-0.10489 0.0713-0.14573 0.15649-0.11422 0.25732 0.01094 0.0367 0.02543 0.0724 0.04306 0.1056l0.28004 0.52721-5.4702 2.8933-0.41458-0.78063-0.42397-0.79706zm55.205 0.71728-1.5887 2.2613-1.5848 2.2558-1.5848 2.2558-1.5856 2.2558c0.1357 0.0948 0.24793 0.0995 0.3356 0.0138 0.0279-0.0265 0.0519-0.0545 0.0736-0.0852l0.34418-0.48965 5.0697 3.5449-0.5116 0.72902 0.24015 0.16817 1.5848-2.2559 1.5848-2.2558h8e-4l1.5848-2.2558 1.5887-2.2613-0.24015-0.16816-0.5194 0.73839-5.0697-3.5449 0.51863-0.73839zm-0.83543 1.7005 5.0697 3.5441-0.50767 0.72431h-8e-4l-0.51863 0.73838-5.0704-3.5449 0.5194-0.73838-0.18852-0.13142c0.11015 0.0588 0.20423 0.056 0.27925-0.0172 0.0279-0.0266 0.0519-0.0552 0.0736-0.086zm-53.076 0.0165 0.42397 0.79626 0.20495-0.10865c-0.10466 0.0715-0.14491 0.1566-0.11343 0.25734 0.01094 0.0369 0.02543 0.0716 0.04296 0.10491l0.28004 0.52798-5.4702 2.8933-0.41536-0.7814-2e-3 -5e-3h-8e-4l-0.42006-0.79078zm51.491 2.2394 5.0704 3.5449-0.51235 0.72899-0.5147 0.73294-5.0704-3.5449 0.5186-0.73839-0.18695-0.13058c0.10961 0.0582 0.20295 0.0549 0.27768-0.0179 0.0279-0.0265 0.0528-0.0552 0.0743-0.086zm-1.5848 2.2558 5.0705 3.5449-0.51237 0.729-0.51549 0.73291-5.0697-3.5441 0.51862-0.73837-0.19243-0.13459c0.11208 0.0614 0.20714 0.0594 0.28316-0.0152 0.0279-0.0265 0.0527-0.0552 0.0743-0.086zm-42.873 4.8316c-0.08714 0.14062-0.08511 0.25161 0.0051 0.334 0.02807 0.0262 0.05796 0.049 0.08997 0.0689l0.50923 0.31445-3.2549 5.254-0.75877-0.46854-0.15488 0.24952 2.3545 1.4517 1.9595 1.2077 1.6145 0.99572 0.15488-0.24952-0.76893-0.47402 4.4087-3.5355-1.0638 5.5974-0.76893-0.47399-0.15489 0.24951 2.1723 1.3391 0.15411-0.24952-0.57651-0.35511 1.1741-5.9673c0.09271-0.464 0.1052-0.7569 0.0383-0.87763-0.04033-0.0778-0.11181-0.14803-0.21433-0.21119l-0.11499-0.0711-5.4193 4.3302-0.09078-0.0555-0.3833-0.23621-0.0061-4e-3 -0.37938-0.23387 3.2549-5.254 0.76893 0.47402 0.15489-0.24952-2.3545-1.4518v8e-4zm1.4315 1.2265 0.76893 0.47402 0.12204-0.19711c-0.0538 0.11416-0.046 0.20829 0.03212 0.27923 0.02807 0.0262 0.05866 0.049 0.09078 0.0689l0.50924 0.31445-3.2557 5.2532-0.75329-0.46464-0.76894-0.474zm29.74 2.5695c-0.0873-0.0101-0.18546 0.0125-0.29488 0.0617l-0.12272 0.0563 0.62656 6.8981-0.51313 0.23623 0.12355 0.26594 1.7233-0.79315-0.12272-0.26595-0.82135 0.37781-0.52019-5.6193 4.0911 3.9759-0.82134 0.3778 0.12354 0.26593 2.3185-1.0669-0.12271-0.26594-0.61562 0.28314-4.3398-4.2708c-0.33663-0.33329-0.574-0.50597-0.71185-0.51703zm-16.694 2.7181c-4e-3 0.16525 0.053 0.26065 0.17289 0.28628 0.0374 0.0101 0.075 0.0138 0.11264 0.0138l0.59919 0.0156-0.16036 6.1738-0.89174-0.0228-7e-3 0.29333 2.3092 0.0595 1.8977 0.0484 7e-3 -0.29253-0.90347-0.0235 2.0236-5.2696 1.9071 5.3705-0.9035-0.0235-7e-3 0.29332 2.5524 0.0657 7e-3 -0.29333-0.67742-0.0172-1.9994-5.7452c-0.15419-0.44744-0.29039-0.706-0.40911-0.77671-0.0742-0.0471-0.17129-0.072-0.29177-0.0751l-0.13528-4e-3 -2.4961 6.464-0.10644-3e-3 -0.90347-0.0235 0.15958-6.1738 0.90347 0.0235 7e-3 -0.29331z" fill="url(#linearGradient1359)" stroke-width=".26458"/></g><g><path id="minute-hand" d="m107.09 114.76c0.0736 1.6652-0.46287 3.0405-1.0338 3.0405-0.57098 0-1.1074-1.3753-1.0338-3.0405l1.0338-23.398z" fill="url(#linearGradient993)" style="paint-order:stroke markers fill"/><path id="hour-hand" d="m107.59 115.82c0.11106 1.0831-0.69908 1.9776-1.5614 1.9776-0.86234 0-1.6725-0.8945-1.5614-1.9776l1.5614-15.218z" fill="url(#linearGradient987)" style="paint-order:stroke markers fill"/><ellipse cx="106.06" cy="116.72" rx="3.2948" ry="3.2946" fill="url(#radialGradient1001)" style="paint-order:stroke markers fill"/></g><g><path d="m52.931 90.627c55.24-76.794 76.935-27.446 104.45 0v164.04h-104.45z" fill="url(#radialGradient1439)" style="paint-order:stroke markers fill"/><g transform="matrix(1.5645 0 0 1.5136 -58.43 -117.59)" stroke-width=".64984"><path transform="matrix(.26135 0 0 .26458 1.6632 0)" d="m514.95 503.62-234.82 219.84v12.83l234.82-219.84zm0 26.15-234.82 219.84v4.8965l234.82-219.84zm0 53.531-234.82 219.84v44.123l234.82-219.85z" fill="url(#linearGradient1369)" style="paint-order:stroke markers fill"/></g><g><path d="m169.22 244.62-13.789 3.9027-4.3605-6.2541 14.385-0.45825z" fill="#4e2014"/><path d="m43.647 244.62 15.545 4.234 5.0028-5.4841-11.693 0.0677z" fill="#4e2014"/><path d="m42.482 100.13 5.9643 5.0419 14.617-0.23795 0.40552-19.354 18.39-1.0596 0.61143-12.9 44.914-2.0229 0.075 15.864 24.619-0.02029-0.48179 19.402 15.203-0.0984 4.5705-5.0419 0.18285-14.018c-38.487-29.684-79.721-40.736-129.03 2.9569z" fill="#140000"/><path d="m158.24 73.124-52.403-53.113-50.55 55.258 20.185-0.76171 0.67337-11.479 53.004-1.4421 1.4109 12.589z" fill="url(#radialGradient1813)"/></g><g fill="#3d190f"><path d="m204.64 87.065-3.278 13.199-13.189 0.64498-83.973-83.617-77.448 82.302-10.162 0.34389-6.1288-12.985 10.122-0.24255 82.566-82.157 4.1487 0.046078 86.381 82.581z"/><path d="m42.524 88.646 12.246-13.932 18.9-1.6355 1.2058-15.009 59.25-1.4941 0.54382 15.418 23.341 0.08655 13.543 13.609-0.18283 14.018-16.556 0.09842 0.52467-19.402-26.531-0.02305-0.39975-15.821-48.873 2.0229-0.66584 12.9-20.027 1.0596-0.44162 19.354-15.918 0.23795z"/><path d="m46.789 101.47 0.08957 142.94 10.58 0.20152-0.08957-143.53z"/><path d="m43.647 244.62 15.336 0.53433-0.01368 15.384-15.516-0.2833z"/></g><g><path d="m64.195 243.37-5.2118 1.7844-0.01368 15.384 5.2602-2.7043z" fill="#340e07"/><path d="m60.348 104.49 0.15179 139.01-3.041 1.1079-0.08957-143.53z" fill="#340e07"/><path d="m166.08 101.47v142.36l-10.58 0.20153v-142.95z" fill="#3d190f"/><path d="m169.22 244.62-15.336 0.53433 0.0138 15.384 15.516-0.2833z" fill="#3d190f"/><path d="m151.07 242.27 3.3809 2.8857 0.0101 15.384-3.4123-4.513z" fill="#340e07"/><path d="m153.56 104.49-0.0404 137.91 1.9727 1.6272v-142.95z" fill="#340e07"/></g></g></svg>
