<?xml version="1.0" encoding="UTF-8"?> <svg width="297mm" height="210mm" version="1.1" viewBox="0 0 297 210" xmlns="http://www.w3.org/2000/svg" xmlns:cc="http://creativecommons.org/ns#" xmlns:dc="http://purl.org/dc/elements/1.1/" xmlns:rdf="http://www.w3.org/1999/02/22-rdf-syntax-ns#"><metadata><rdf:RDF><cc:Work rdf:about=""><dc:format>image/svg+xml</dc:format><dc:type rdf:resource="http://purl.org/dc/dcmitype/StillImage"/><dc:title/></cc:Work></rdf:RDF></metadata> <path transform="scale(.265)" d="m1057 167c-29.1 0.185-70.6 27.3-106 72.7-74.7 97.1-153 210-251 295-57.6-20.2-111-47-171-73.5 17.6-10.4 42.3-27.2 59.3-38.6 98.2-3.32 209-7.68 269-83.2 14.1-16.2 6.47-35.5-9.3-52.5-18.9-20.4-70.8-21.1-132 12.2-53.2 28.9-103 74.2-153 108-54.5 3.37-182-55.1-206-92.5 34.7 67.8 162 96.4 191 101-14.3 9.28-32.9 22.1-47.7 30.4-56.3-20.4-160-74.5-225-41.1-23.4 12-37.4 35.7-37.5 60.1-0.0747 40.3 53.2 62.6 87.3 63.8 69.1 2.46 124-29.2 190-62.7 59.7 26 117 54.3 175 77.1-25.9 21.5-53.1 40.9-82 57.5-229 113-440-127-503-157-65-30.5-90.8 9.89-72.1 34.5 5.48-13 23.8-22.2 44.9-22.2 56.1 0 109 57.4 189 109 67.4 43.2 145 71.4 210 73.3 55.4-0.132 107-11.4 135-24.7 33.5-16.1 65.7-38.1 96.7-63.7 54.7 20.3 110 35 170 37.7 67.5 3.05 78.9-47.9 78.3-64.2-2.4-60.3-53.3-74.9-88.1-59.9-34.9 15-38.3 43.2-25.6 64.5 0.62-14.5 5.3-33.8 29.9-42.9 24.6-9.16 60.2 2.89 61.5 36.6 0.694 17.6-17.9 47.3-53.7 46.3-60.8-1.67-113-12.2-161-27.7 157-136 279-360 344-360 43.2 0.313 20.1 92.3-2.12 121 47.9-52.2 52-130-1.73-135-0.912-0.0504-1.84-0.0724-2.78-0.0664zm4.5 135c-1.67 1.82-3.39 3.62-5.17 5.37 1.7-1.35 3.43-3.17 5.17-5.37zm-704 13.1c-1.44-2.81-2.74-5.68-3.85-8.63 0.543 2.71 1.87 5.6 3.85 8.63zm457-34.1c9.67 0.159 18.8 3.32 26.6 11 26.1 25.6-16.9 55.1-40.4 71.1-76.9 52.3-153 50.4-202 51.3 43.5-30.6 121-83.6 136-94.7 17-12.7 50.7-39.2 79.7-38.7zm-483 122c49.5 0.162 117 25.4 158 51.1-90.6 55.4-226 108-234 9.59-1.39-18.4 17.3-44.6 39.5-54.4 10.1-4.43 22.5-6.35 36.4-6.31z" fill="#ffffff"/></svg>
